<svg width="329" height="100" viewBox="0 0 329 100" fill="none" xmlns="http://www.w3.org/2000/svg">
<path d="M17.1193 32.92H24.3513V49.944C25.3753 48.92 26.6339 48.1093 28.1273 47.512C29.6206 46.872 31.2846 46.552 33.1193 46.552C35.5086 46.552 37.5993 47.0853 39.3913 48.152C41.2259 49.176 42.6339 50.712 43.6153 52.76C44.6393 54.7653 45.1513 57.2827 45.1513 60.312V79H37.6633V61.272C37.6633 58.584 37.1086 56.5573 35.9993 55.192C34.9326 53.8267 33.3113 53.144 31.1353 53.144C28.9166 53.144 27.2313 53.848 26.0793 55.256C24.9273 56.664 24.3513 58.712 24.3513 61.4V79H17.1193V32.92ZM64.3803 79.448C61.1803 79.448 58.3643 78.744 55.9323 77.336C53.5429 75.928 51.6656 73.9653 50.3003 71.448C48.9776 68.9307 48.3163 66.0293 48.3163 62.744C48.3163 59.6293 48.9776 56.856 50.3003 54.424C51.6229 51.992 53.4576 50.072 55.8043 48.664C58.1509 47.256 60.8176 46.552 63.8043 46.552C66.8336 46.552 69.5003 47.2133 71.8043 48.536C74.1083 49.8587 75.9003 51.7147 77.1803 54.104C78.5029 56.4507 79.1643 59.1813 79.1643 62.296C79.1643 62.808 79.1429 63.3627 79.1003 63.96C79.0576 64.5147 78.9936 65.112 78.9083 65.752H56.1243C56.3376 67.2453 56.8069 68.5467 57.5323 69.656C58.3003 70.7227 59.2603 71.5547 60.4123 72.152C61.5643 72.7493 62.8869 73.048 64.3803 73.048C66.1723 73.048 67.7723 72.6853 69.1803 71.96C70.6309 71.2347 71.6336 70.2747 72.1883 69.08L78.5243 71.192C77.2443 73.752 75.3456 75.7787 72.8283 77.272C70.3109 78.7227 67.4949 79.448 64.3803 79.448ZM71.2923 59.864C71.2496 58.5413 70.8869 57.3467 70.2043 56.28C69.5216 55.2133 68.6256 54.3813 67.5163 53.784C66.4069 53.144 65.1696 52.824 63.8043 52.824C62.6096 52.824 61.4789 53.1227 60.4123 53.72C59.3456 54.3173 58.4283 55.1493 57.6603 56.216C56.9349 57.24 56.4656 58.456 56.2523 59.864H71.2923ZM101.854 79L101.214 75.096C100.19 76.4613 98.9738 77.5067 97.5658 78.232C96.1578 78.9573 94.2804 79.32 91.9338 79.32C89.7151 79.32 87.7951 78.9573 86.1738 78.232C84.5524 77.464 83.2938 76.4187 82.3978 75.096C81.5444 73.7307 81.1178 72.152 81.1178 70.36C81.1178 67.672 82.0991 65.432 84.0618 63.64C86.0671 61.8053 88.9898 60.6747 92.8298 60.248L101.214 59.352V56.856C101.214 55.832 100.766 54.9147 99.8698 54.104C98.9738 53.2507 97.5444 52.824 95.5818 52.824C93.8751 52.824 92.3818 53.2507 91.1018 54.104C89.8644 54.9147 89.0324 56.152 88.6058 57.816L82.3338 55.512C83.1444 52.696 84.7444 50.4987 87.1338 48.92C89.5658 47.3413 92.5098 46.552 95.9658 46.552C100.147 46.552 103.283 47.5973 105.374 49.688C107.464 51.7787 108.51 54.4453 108.51 57.688V79H101.854ZM101.214 64.92L93.5338 65.88C91.9124 66.0933 90.6964 66.5627 89.8858 67.288C89.0751 67.9707 88.6698 68.8453 88.6698 69.912C88.6698 70.8933 89.0538 71.7467 89.8218 72.472C90.6324 73.1547 91.7204 73.496 93.0858 73.496C94.8351 73.496 96.3071 73.176 97.5018 72.536C98.7391 71.896 99.6564 70.9787 100.254 69.784C100.894 68.5893 101.214 67.1173 101.214 65.368V64.92ZM115.38 47V38.04H122.74V47H130.228V53.336H122.74V67.544C122.74 69.464 123.102 70.808 123.828 71.576C124.553 72.3013 125.492 72.7067 126.644 72.792C127.838 72.8347 129.033 72.7707 130.228 72.6V78.744C128.393 79.128 126.58 79.2347 124.788 79.064C123.038 78.936 121.46 78.4667 120.052 77.656C118.644 76.8027 117.513 75.5653 116.66 73.944C115.806 72.3227 115.38 70.1893 115.38 67.544V53.336H110.9V47H115.38Z" fill="#E88D05"/>
<path d="M147.081 79.448C144.009 79.448 141.299 78.7653 138.953 77.4C136.606 75.992 134.771 74.072 133.449 71.64C132.169 69.208 131.529 66.3707 131.529 63.128C131.529 59.8427 132.19 56.9627 133.513 54.488C134.835 52.0133 136.67 50.072 139.017 48.664C141.406 47.256 144.158 46.552 147.273 46.552C150.558 46.552 153.481 47.3413 156.041 48.92C158.601 50.456 160.435 52.5467 161.545 55.192L154.953 57.368C154.398 56.0453 153.438 55 152.073 54.232C150.75 53.4213 149.235 53.016 147.529 53.016C145.822 53.016 144.35 53.4427 143.113 54.296C141.875 55.1067 140.915 56.2587 140.233 57.752C139.593 59.2453 139.273 61.016 139.273 63.064C139.273 66.136 140.019 68.568 141.513 70.36C143.006 72.1093 145.054 72.984 147.657 72.984C149.321 72.984 150.814 72.6213 152.137 71.896C153.459 71.128 154.483 70.0613 155.209 68.696L161.673 70.936C160.435 73.5387 158.494 75.608 155.849 77.144C153.246 78.68 150.323 79.448 147.081 79.448ZM165.244 32.92H172.476V49.944C173.5 48.92 174.759 48.1093 176.252 47.512C177.746 46.872 179.41 46.552 181.244 46.552C183.634 46.552 185.724 47.0853 187.516 48.152C189.351 49.176 190.759 50.712 191.74 52.76C192.764 54.7653 193.276 57.2827 193.276 60.312V79H185.788V61.272C185.788 58.584 185.234 56.5573 184.124 55.192C183.058 53.8267 181.436 53.144 179.26 53.144C177.042 53.144 175.356 53.848 174.204 55.256C173.052 56.664 172.476 58.712 172.476 61.4V79H165.244V32.92ZM212.505 79.448C209.305 79.448 206.489 78.744 204.057 77.336C201.668 75.928 199.791 73.9653 198.425 71.448C197.103 68.9307 196.441 66.0293 196.441 62.744C196.441 59.6293 197.103 56.856 198.425 54.424C199.748 51.992 201.583 50.072 203.929 48.664C206.276 47.256 208.943 46.552 211.929 46.552C214.959 46.552 217.625 47.2133 219.929 48.536C222.233 49.8587 224.025 51.7147 225.305 54.104C226.628 56.4507 227.289 59.1813 227.289 62.296C227.289 62.808 227.268 63.3627 227.225 63.96C227.183 64.5147 227.119 65.112 227.033 65.752H204.249C204.463 67.2453 204.932 68.5467 205.657 69.656C206.425 70.7227 207.385 71.5547 208.537 72.152C209.689 72.7493 211.012 73.048 212.505 73.048C214.297 73.048 215.897 72.6853 217.305 71.96C218.756 71.2347 219.759 70.2747 220.313 69.08L226.649 71.192C225.369 73.752 223.471 75.7787 220.953 77.272C218.436 78.7227 215.62 79.448 212.505 79.448ZM219.417 59.864C219.375 58.5413 219.012 57.3467 218.329 56.28C217.647 55.2133 216.751 54.3813 215.641 53.784C214.532 53.144 213.295 52.824 211.929 52.824C210.735 52.824 209.604 53.1227 208.537 53.72C207.471 54.3173 206.553 55.1493 205.785 56.216C205.06 57.24 204.591 58.456 204.377 59.864H219.417ZM244.731 79.448C241.659 79.448 238.949 78.7653 236.603 77.4C234.256 75.992 232.421 74.072 231.099 71.64C229.819 69.208 229.179 66.3707 229.179 63.128C229.179 59.8427 229.84 56.9627 231.163 54.488C232.485 52.0133 234.32 50.072 236.667 48.664C239.056 47.256 241.808 46.552 244.923 46.552C248.208 46.552 251.131 47.3413 253.691 48.92C256.251 50.456 258.085 52.5467 259.195 55.192L252.603 57.368C252.048 56.0453 251.088 55 249.723 54.232C248.4 53.4213 246.885 53.016 245.179 53.016C243.472 53.016 242 53.4427 240.763 54.296C239.525 55.1067 238.565 56.2587 237.883 57.752C237.243 59.2453 236.923 61.016 236.923 63.064C236.923 66.136 237.669 68.568 239.163 70.36C240.656 72.1093 242.704 72.984 245.307 72.984C246.971 72.984 248.464 72.6213 249.787 71.896C251.109 71.128 252.133 70.0613 252.859 68.696L259.323 70.936C258.085 73.5387 256.144 75.608 253.499 77.144C250.896 78.68 247.973 79.448 244.731 79.448ZM262.894 32.92H270.126V59.928H272.494L283.758 47H293.294L278.766 63L293.358 79H283.822L272.494 66.008H270.126V79H262.894V32.92Z" fill="black"/>
<g clip-path="url(#clip0_3_122)">
<rect x="307.616" y="45.2544" width="25" height="25" rx="12.5" transform="rotate(32.3065 307.616 45.2544)" fill="#E88D05"/>
<rect width="1" height="25.5" transform="translate(317.758 51.6678) rotate(32.3065)" fill="#BF7300"/>
<rect width="1" height="25.5" transform="translate(300.245 55.9748) rotate(-57.6935)" fill="#BF7300"/>
<path d="M309.849 46.7776C309.826 46.8613 310.382 42.5375 310.147 44.4591C307.3 52.4055 311.069 68.0882 326.939 56.2604" stroke="#BF7300"/>
<path d="M312.843 77.8901C312.862 77.8053 313.25 82.0803 313.383 80.149C315.804 72.0626 311.208 56.6021 295.988 69.2556" stroke="#BF7300"/>
</g>
<path d="M138 98C187.975 20.4588 271.12 -39.5614 304 41.894" stroke="url(#paint0_linear_3_122)" stroke-width="3" stroke-linecap="round"/>
<defs>
<linearGradient id="paint0_linear_3_122" x1="303.447" y1="42.1478" x2="201.834" y2="76.5452" gradientUnits="userSpaceOnUse">
<stop stop-color="#E88D05"/>
<stop offset="1" stop-color="#E88D05" stop-opacity="0"/>
</linearGradient>
<clipPath id="clip0_3_122">
<rect x="307.616" y="45.2544" width="25" height="25" rx="12.5" transform="rotate(32.3065 307.616 45.2544)" fill="white"/>
</clipPath>
</defs>
</svg>
